<?xml version="1.0" encoding="utf-8"?>
<!-- Generator: Adobe Illustrator 19.1.0, SVG Export Plug-In . SVG Version: 6.00 Build 0)  -->
<!DOCTYPE svg PUBLIC "-//W3C//DTD SVG 1.1//EN" "http://www.w3.org/Graphics/SVG/1.1/DTD/svg11.dtd">
<svg version="1.1" id="Layer_1" xmlns="http://www.w3.org/2000/svg" xmlns:xlink="http://www.w3.org/1999/xlink" x="0px" y="0px"
	 viewBox="-420 331 792 792" style="enable-background:new -420 331 792 792;" xml:space="preserve">
<style type="text/css">
	.st0{fill:#FFFFFF;}
	.st1{fill:none;}
	.st2{font-family:'Lobster1.4';}
	.st3{font-size:101px;}
</style>
<g>
	<g>
		<path class="st0" d="M-9.6,369.8c-32.3,0-58.4,26.2-58.4,58.4s26.2,58.4,58.4,58.4s58.4-26.2,58.4-58.4S22.7,369.8-9.6,369.8z
			 M24.8,462.6c-9.2,9.2-21.4,14.2-34.3,14.2s-25.2-5.1-34.3-14.2c-9.2-9.2-14.2-21.4-14.2-34.3c0-13,5.1-25.2,14.2-34.3
			c9.2-9.2,21.4-14.2,34.3-14.2s25.2,5.1,34.3,14.2c9.2,9.2,14.2,21.4,14.2,34.3C39,441.2,33.9,453.4,24.8,462.6z"/>
		<path class="st0" d="M-118.7,409.2c-32.3,0-58.4,26.2-58.4,58.4S-151,526-118.7,526s58.4-26.2,58.4-58.4S-86.5,409.2-118.7,409.2z
			 M-84.4,501.9c-9.2,9.2-21.4,14.2-34.3,14.2s-25.2-5.1-34.3-14.2c-9.2-9.2-14.2-21.4-14.2-34.3c0-13,5.1-25.2,14.2-34.3
			c9.2-9.2,21.4-14.2,34.3-14.2s25.2,5.1,34.3,14.2c9.2,9.2,14.2,21.4,14.2,34.3C-70.2,480.6-75.2,492.8-84.4,501.9z"/>
		<path class="st0" d="M-201,488.2c-32.3,0-58.4,26.2-58.4,58.4S-233.2,605-201,605s58.4-26.2,58.4-58.4S-168.7,488.2-201,488.2z
			 M-166.6,581c-9.2,9.2-21.4,14.2-34.3,14.2c-13,0-25.2-5.1-34.3-14.2c-9.2-9.2-14.2-21.4-14.2-34.3c0-13,5.1-25.2,14.2-34.3
			c9.2-9.2,21.4-14.2,34.3-14.2c13,0,25.2,5.1,34.3,14.2c9.2,9.2,14.2,21.4,14.2,34.3C-152.4,559.6-157.5,571.8-166.6,581z"/>
		<path class="st0" d="M-225.6,600.4c-32.3,0-58.4,26.2-58.4,58.4c0,32.3,26.2,58.4,58.4,58.4s58.4-26.2,58.4-58.4
			C-167.1,626.6-193.3,600.4-225.6,600.4z M-191.2,693.2c-9.2,9.2-21.4,14.2-34.3,14.2c-13,0-25.2-5.1-34.3-14.2
			c-9.2-9.2-14.2-21.4-14.2-34.3c0-13,5.1-25.2,14.2-34.3c9.2-9.2,21.4-14.2,34.3-14.2c13,0,25.2,5.1,34.3,14.2
			c9.2,9.2,14.2,21.4,14.2,34.3C-177,671.8-182.1,684-191.2,693.2z"/>
	</g>
	<g>
		<path class="st0" d="M-69.4,428.3c0,32.3,26.2,58.4,58.4,58.4s58.4-26.2,58.4-58.4S21.3,369.8-11,369.8S-69.4,396-69.4,428.3z
			 M-59.5,428.3c0-13,5.1-25.2,14.2-34.3c9.2-9.2,21.4-14.2,34.3-14.2s25.2,5.1,34.3,14.2c9.2,9.2,14.2,21.4,14.2,34.3
			c0,13-5.1,25.2-14.2,34.3C14.2,471.8,2,476.8-11,476.8s-25.2-5.1-34.3-14.2C-54.5,453.4-59.5,441.2-59.5,428.3z"/>
		<path class="st0" d="M39.8,467.6c0,32.3,26.2,58.4,58.4,58.4s58.4-26.2,58.4-58.4s-26.2-58.4-58.4-58.4S39.8,435.4,39.8,467.6z
			 M49.6,467.6c0-13,5.1-25.2,14.2-34.3c9.2-9.2,21.4-14.2,34.3-14.2s25.2,5.1,34.3,14.2c9.2,9.2,14.2,21.4,14.2,34.3
			c0,13-5.1,25.2-14.2,34.3c-9.2,9.2-21.4,14.2-34.3,14.2s-25.2-5.1-34.3-14.2C54.7,492.8,49.6,480.6,49.6,467.6z"/>
		<path class="st0" d="M122,546.6c0,32.3,26.2,58.4,58.4,58.4s58.4-26.2,58.4-58.4s-26.2-58.4-58.4-58.4S122,514.4,122,546.6z
			 M131.9,546.6c0-13,5.1-25.2,14.2-34.3c9.2-9.2,21.4-14.2,34.3-14.2s25.2,5.1,34.3,14.2c9.2,9.2,14.2,21.4,14.2,34.3
			c0,13-5.1,25.2-14.2,34.3c-9.2,9.2-21.4,14.2-34.3,14.2s-25.2-5.1-34.3-14.2C136.9,571.8,131.9,559.6,131.9,546.6z"/>
		<path class="st0" d="M146.6,658.9c0,32.3,26.2,58.4,58.4,58.4s58.4-26.2,58.4-58.4c0-32.3-26.2-58.4-58.4-58.4
			S146.6,626.6,146.6,658.9z M156.5,658.9c0-13,5.1-25.2,14.2-34.3c9.2-9.2,21.4-14.2,34.3-14.2s25.2,5.1,34.3,14.2
			c9.2,9.2,14.2,21.4,14.2,34.3c0,13-5.1,25.2-14.2,34.3c-9.2,9.2-21.4,14.2-34.3,14.2s-25.2-5.1-34.3-14.2
			C161.5,684,156.5,671.8,156.5,658.9z"/>
	</g>
</g>
<g>
	<g>
		<path class="st0" d="M48.8,888.7c0-32.3-26.2-58.4-58.4-58.4S-68,856.4-68,888.7s26.2,58.4,58.4,58.4S48.8,920.9,48.8,888.7z
			 M39,888.7c0,13-5.1,25.2-14.2,34.3c-9.2,9.2-21.4,14.2-34.3,14.2s-25.2-5.1-34.3-14.2c-9.2-9.2-14.2-21.4-14.2-34.3
			c0-13,5.1-25.2,14.2-34.3c9.2-9.2,21.4-14.2,34.3-14.2s25.2,5.1,34.3,14.2C33.9,863.5,39,875.7,39,888.7z"/>
		<path class="st0" d="M-60.3,849.3c0-32.3-26.2-58.4-58.4-58.4s-58.4,26.2-58.4,58.4c0,32.3,26.2,58.4,58.4,58.4
			S-60.3,881.6-60.3,849.3z M-70.2,849.3c0,13-5.1,25.2-14.2,34.3c-9.2,9.2-21.4,14.2-34.3,14.2s-25.2-5.1-34.3-14.2
			c-9.2-9.2-14.2-21.4-14.2-34.3c0-13,5.1-25.2,14.2-34.3s21.4-14.2,34.3-14.2s25.2,5.1,34.3,14.2
			C-75.2,824.1-70.2,836.3-70.2,849.3z"/>
		<path class="st0" d="M-142.5,770.3c0-32.3-26.2-58.4-58.4-58.4s-58.4,26.2-58.4,58.4s26.2,58.4,58.4,58.4
			S-142.5,802.5-142.5,770.3z M-152.4,770.3c0,13-5.1,25.2-14.2,34.3c-9.2,9.2-21.4,14.2-34.3,14.2c-13,0-25.2-5.1-34.3-14.2
			c-9.2-9.2-14.2-21.4-14.2-34.3c0-13,5.1-25.2,14.2-34.3c9.2-9.2,21.4-14.2,34.3-14.2c13,0,25.2,5.1,34.3,14.2
			C-157.5,745.1-152.4,757.3-152.4,770.3z"/>
		<path class="st0" d="M-167.1,658.1c0-32.3-26.2-58.4-58.4-58.4s-58.4,26.2-58.4,58.4c0,32.3,26.2,58.4,58.4,58.4
			S-167.1,690.3-167.1,658.1z M-177,658.1c0,13-5.1,25.2-14.2,34.3c-9.2,9.2-21.4,14.2-34.3,14.2c-13,0-25.2-5.1-34.3-14.2
			c-9.2-9.2-14.2-21.4-14.2-34.3c0-13,5.1-25.2,14.2-34.3c9.2-9.2,21.4-14.2,34.3-14.2c13,0,25.2,5.1,34.3,14.2
			C-182.1,632.9-177,645.1-177,658.1z"/>
	</g>
	<g>
		<path class="st0" d="M-11,947.1c32.3,0,58.4-26.2,58.4-58.4S21.3,830.2-11,830.2s-58.4,26.2-58.4,58.4S-43.2,947.1-11,947.1z
			 M-45.3,854.3c9.2-9.2,21.4-14.2,34.3-14.2s25.2,5.1,34.3,14.2c9.2,9.2,14.2,21.4,14.2,34.3c0,13-5.1,25.2-14.2,34.3
			C14.2,932.2,2,937.2-11,937.2s-25.2-5.1-34.3-14.2c-9.2-9.2-14.2-21.4-14.2-34.3C-59.5,875.7-54.5,863.5-45.3,854.3z"/>
		<path class="st0" d="M98.2,907.7c32.3,0,58.4-26.2,58.4-58.4c0-32.3-26.2-58.4-58.4-58.4S39.8,817,39.8,849.3
			C39.8,881.6,65.9,907.7,98.2,907.7z M63.8,815c9.2-9.2,21.4-14.2,34.3-14.2s25.2,5.1,34.3,14.2c9.2,9.2,14.2,21.4,14.2,34.3
			c0,13-5.1,25.2-14.2,34.3c-9.2,9.2-21.4,14.2-34.3,14.2s-25.2-5.1-34.3-14.2c-9.2-9.2-14.2-21.4-14.2-34.3
			C49.6,836.3,54.7,824.1,63.8,815z"/>
		<path class="st0" d="M180.4,828.7c32.3,0,58.4-26.2,58.4-58.4s-26.2-58.4-58.4-58.4S122,738,122,770.3S148.2,828.7,180.4,828.7z
			 M146.1,735.9c9.2-9.2,21.4-14.2,34.3-14.2s25.2,5.1,34.3,14.2c9.2,9.2,14.2,21.4,14.2,34.3c0,13-5.1,25.2-14.2,34.3
			c-9.2,9.2-21.4,14.2-34.3,14.2s-25.2-5.1-34.3-14.2c-9.2-9.2-14.2-21.4-14.2-34.3C131.9,757.3,136.9,745.1,146.1,735.9z"/>
		<path class="st0" d="M205,716.5c32.3,0,58.4-26.2,58.4-58.4c0-32.3-26.2-58.4-58.4-58.4s-58.4,26.2-58.4,58.4
			C146.6,690.3,172.7,716.5,205,716.5z M170.7,623.7c9.2-9.2,21.4-14.2,34.3-14.2s25.2,5.1,34.3,14.2c9.2,9.2,14.2,21.4,14.2,34.3
			c0,13-5.1,25.2-14.2,34.3c-9.2,9.2-21.4,14.2-34.3,14.2s-25.2-5.1-34.3-14.2c-9.2-9.2-14.2-21.4-14.2-34.3
			C156.5,645.1,161.5,632.9,170.7,623.7z"/>
	</g>
</g>
<g>
	<path class="st0" d="M10.4,591.5c1.5-0.1,3.1-0.2,4-0.9c-2.5-0.1-3.5-1.6-5.4-2.2C9,589.8,10.5,589.9,10.4,591.5z"/>
	<path class="st0" d="M-13.8,603.6c0-0.2-0.4-0.5-0.5,0C-14.2,603.8-13.8,604.1-13.8,603.6z"/>
	<path class="st0" d="M-3,579c-0.9-0.2-0.8-1.3-2.2-0.9C-5.3,579.7-3.7,580.3-3,579z"/>
	<path class="st0" d="M5.6,699.3c0.5-0.1,1.3,0.1,1.3-0.4C6.4,698.9,5.6,698.8,5.6,699.3z"/>
	<path class="st0" d="M-13.3,606.7c0.2,1.1-0.8,1-0.4,2.2c1.6,0.9,3.2,0.8,4.5,0.4c0-1.7-2-1.3-3.6-1.3
		C-12.1,606.7-14.5,605.9-13.3,606.7z"/>
	<path class="st0" d="M-12,600.9c-0.4,1,0,1.4-0.4,3.1C-10.3,604.7-9.8,600.6-12,600.9z"/>
	<path class="st0" d="M-6.2,577.6C-7.3,579.1-4.7,576.6-6.2,577.6L-6.2,577.6z"/>
	<path class="st0" d="M-3.4,698c0.7,0.4,1,1.2,0.4,1.8c1.3-0.4,1.2,0.6,2.2,0.4c0.2-1.8,3.8-0.8,4-1.3C2,697.9-1.4,696.7-3.4,698z"
		/>
	<path class="st0" d="M-9.3,611.2c0,0.3,0,0.6,0,0.9c0.4,0,0.9,0,1.3,0C-7.9,611.3-8.4,611-9.3,611.2z"/>
	<path class="st0" d="M-7.5,601.3c-0.5,0.4-1.2,0.6-2.2,0.5c0.3,2.7-1.6,3.2-2.2,4.9c1.9,0.5,1.7-0.1,3.6,0.4
		c-0.8-2,1.1-1.9,1.3-2.2c0.3-0.5-0.3-1.3,0-1.8c0.7-1.3,3.1-2.4,3.1-4c-2-1.4-5.9-0.6-6.7,1.8C-9.7,601.2-7.7,600.3-7.5,601.3z"/>
	<path class="st0" d="M11.7,580.3c1.8,0.2,5.4,0.5,5.4-0.9c-0.7-1.3-1,0.3-1.8,0.5c-2.1,0.3-5-1.1-6.7,0
		C9.5,579.5,10.5,580.2,11.7,580.3z"/>
	<path class="st0" d="M68.6,609.3c-0.5,0-0.7-0.7-0.9,0C67.7,609.8,68.4,609.9,68.6,609.3z"/>
	<path class="st0" d="M66.3,619.2c-0.8,0.1-1.4-2.1-1.8-0.9C65,618.5,66,620.3,66.3,619.2z"/>
	<path class="st0" d="M68.6,617.8c0.1-0.3,1.1-1.7,0-1.8C68.4,616.3,67.4,617.8,68.6,617.8z"/>
	<path class="st0" d="M-55.3,631.4c1,1,0.2,3.7,1.4,4.5C-53.7,633.9-54.2,630.4-55.3,631.4z"/>
	<path class="st0" d="M-20.4,693.1c0.5-0.2,1-0.5,1.3-0.9C-19.7,692.1-21.5,692.9-20.4,693.1z"/>
	<path class="st0" d="M5.5,648.7c0.5-0.1,1.3,0.1,1.3-0.4C6.3,648.4,5.6,648.2,5.5,648.7z"/>
	<path class="st0" d="M-56.3,607.2c-0.5,0.1-1.3-0.1-1.3,0.4C-57.1,607.6-56.3,607.7-56.3,607.2z"/>
	<path class="st0" d="M-11,700.2c0.3-0.1,0.9,0,0.9-0.5C-10.5,699.9-11,699.8-11,700.2z"/>
	<path class="st0" d="M-14.2,622.8c-0.5,0.5-0.9,3.2,0,3.6c0.4-0.7,1.1-1,2.2-0.9c0.1,0.5,0.7,1.1,0.9,0.4
		C-12.1,624.9-12.9,623.6-14.2,622.8z"/>
	<path class="st0" d="M-18.2,692.6c0.5,0.1,1.1,0.1,0.9,0.9c2.4-0.5,2.3,1.2,4.6,0.9c0.3,0.9,1.9,1.7,1.9,1.3c0,0.4,0,0.9,0,1.3
		c2.6-0.3,3.9,0.6,4.4-0.4c-3.3-1.3-6.2-2.9-9.2-4.5C-16.4,692.4-18.1,691.6-18.2,692.6z"/>
	<path class="st0" d="M23.4,612.5C24.9,613.9,24.7,610.8,23.4,612.5L23.4,612.5z"/>
	<path class="st0" d="M24.2,581.6c-0.3,0.1-0.9,0-0.9,0.4C23.7,582,24.2,582.1,24.2,581.6z"/>
	<path class="st0" d="M16.7,606.7c0.5,0.1,1,0.8,1.3,0c-0.5-0.9-2.1-0.6-2.7-1.3c0.9-0.2,0.9,0,0-0.4c-0.7-0.3-0.3-2.2-1.3-2.2
		c0.3,0,0.5-0.1,0.4-0.5c-1.5-0.4-2.5-1.4-4-1.8c0-0.4,0.6-0.5,0.7-0.9c-3.2-0.2-2.9-3.6-5.6-4.5c0,0.7,0,1.5,0,2.2
		c-2.6-1.6-3.6,0.5-2.5-1.8c-2.3-0.2-4.1,0.2-3.7,2.7c-1,1-1.3,0.4-2.3,0.9c-0.5,0.6-0.5,1.7-1.4,1.8c-0.3,1.2,0.9,0.9,0.9,1.8
		c-0.6,0.9-1.9,1.1-2.2,2.2c1.1,0.3,1,1.7,1.3,2.7c4.9-1.9,6.2,2.8,8.1,5.4c0.4-1,2.1,0.2,2.2,0.9c-1.5-0.4-1.5,0.6-1.3,1.8
		c1.7,0.6,0.9-1.2,2.2-0.9c-0.1,0.8,0.5,1,0.4,1.8c0,0.9-1.2,0.6-0.9,1.8c1.5,2.5,3.9,6.1,6.3,8c1.2,1,3.7,0.4,5.4,0.9
		c-1.2-2.4-0.8-6.4-2.7-8.1c0.6-0.9,0.9-2.1,2.2-2.2c-0.1-1.4,0.3-3.3-0.4-4c0.9-1.3,2-2.5,1.8-4.9
		C17.3,608.2,16.6,608.9,16.7,606.7z"/>
	<path class="st0" d="M-3,618.3c0.8-0.9-0.3-0.8,0-2.2c-0.9-1.3-3.5-1-3.6-3.1c-1.6-0.2-4.4,0.8-3.6-1.8c-2-0.4-1,2.2-2.7,2.2
		c-0.7-1.4,2.1-2.7,0-2.7c-0.5,1-1.5,1.4-1.3,3.1c0.6,1.9,1.9,2.3,3.1,2.7c0.4,0.1,1.8,0.4,1.8,0.4c0.1,0,0.5-1.1,0.9-0.9
		c1.6,0.8,1.1,2.9,3.1,3.6c-0.2,1.9-0.7,3.5-1.8,4.5c-1.3-0.5-1.7-0.3-2.2,0.9c4.8-1.1,5.8,4.1,9,3.1c-0.6-0.5-2.7-1.8-1.8-2.2
		c1.4-0.1,1.3,1.4,3.1,0.9c0.2-2.3-3.9-2.6-2.2-4.9c1.1,0.1,0.8,1.6,2.2,1.3c0.5-0.5,0.5-1.6,0.4-2.7C-0.1,619.9-2,619.6-3,618.3z"
		/>
	<path class="st0" d="M-7,619.8h-0.9c0,0,0,0.5,0,0.8c0.3,0,0.6,0,0.9,0C-7,620.4-7,619.8-7,619.8z"/>
	<path class="st0" d="M16.2,649.6c-0.2-1.2-0.4-1.1-0.9-2.7c-1.3,0.6-2.2,0-3.1-0.9c-0.3-0.8,1.3-1.9,0-2.2
		c-0.4,1.8-1.5,5.3-0.9,6.7c0.5-0.9,3.5-0.5,4,0c0.4-1.3,0.7-0.5,1.8-0.5C17.2,649.2,16.8,649.1,16.2,649.6z"/>
	<path class="st0" d="M26.1,608.9c-0.2,1.6-1.4,2.1-0.9,4.5C28.8,615.8,30.3,608.4,26.1,608.9z"/>
	<path class="st0" d="M44,615.6c-1.2,1.1,0.3,1.8,0.5,2.2c0.1,0.4-0.6,0.7-0.5,0.9c0.2,0.5,1.2,0.7,1.8,1.3c0.5,0.6,0.2,1.7,1.3,1.3
		C47.7,617.9,45.6,617,44,615.6z"/>
	<path class="st0" d="M50.2,613.4c-1.7-0.6-5.6-0.8-6.7-0.4c-0.5-0.9-0.8-1.9-1.8-2.2c0.3,0.7-0.9,1.9-0.9,0.9
		c0-0.3-0.1-0.5-0.4-0.4c0.4,2.9,3.2,2.5,4.5,3.6c0.1-0.3,0-0.9,0.4-0.9c0.8,0.7,2.4,0.6,1.8,2.7c1.4-0.4,0.9,1.2,1.8,1.3
		c0.1-0.5,0.5-0.7,0.9-0.9c0,0.6,0.8,2.9,0.5,1.8C51.2,617,49.9,615.7,50.2,613.4z"/>
	<path class="st0" d="M47.1,604.9c-1.4,0.3-0.9-1.2-2.2-0.9C44.7,605.4,46.9,606.4,47.1,604.9z"/>
	<path class="st0" d="M-19.1,604.9c-0.9-0.1-0.9,0.6-1.3,0.9c-0.6-0.6-0.2-2.2-1.3-2.2c-0.1,0.3-0.4,0.5-0.9,0.4
		c0.1,1.1,0.8,1.4,0,2.2c1.2,0,2.6-0.2,3.1,0.5C-19.4,606.1-18.9,605.9-19.1,604.9z"/>
	<path class="st0" d="M-21.8,578.5c0.8-0.3,1.9-0.2,2.2-0.9C-20.5,576.7-21.5,577.6-21.8,578.5z"/>
	<path class="st0" d="M-23.2,603.1c0.6-1.4,2.1,1,2.2-0.9c-0.6,0-1-0.2-1.3-0.4C-22.2,602.4-24.9,602.4-23.2,603.1z"/>
	<path class="st0" d="M-15.5,608.1c0,0.2,0.4,0.5,0.4,0C-15.1,607.8-15.5,607.5-15.5,608.1z"/>
	<path class="st0" d="M-24.5,606.7c0.1-1.6-0.6-2.3-2.2-2.2c-0.3,1.6-2.9,0.9-2.7,3.1C-27,608.2-27,606.2-24.5,606.7z"/>
	<path class="st0" d="M-16,605.4c-0.8-0.1-1,0.5-1.8,0.5c-0.1,0.8,0.5,1,0.5,1.8C-15.9,607.8-15.9,606.7-16,605.4z"/>
	<path class="st0" d="M-17.3,609.4c-1.7-0.6-0.9,1.2-2.2,0.9c0.2,0.8,0.2,1.9,0.9,2.2c0.1-0.6,1-0.5,1.3-0.9
		C-17.7,610.3-17.7,610.8-17.3,609.4z"/>
	<path class="st0" d="M-16,611.6c0.3-0.5,1.9,0.1,1.8-1.8c-0.6,0-1.2,0-1.8,0C-15.4,610.9-17.1,611.5-16,611.6z"/>
	<path class="st0" d="M-15.1,603.1c0-0.8-0.3-1.1-0.9-1.3C-16,602.5-16.1,603.3-15.1,603.1z"/>
	<path class="st0" d="M-24.5,607.9c-0.7,0-1.5,0-2.2,0c-1.6,2.6-0.1,2.2,0.4,3.9c-1.3,0.4-1.1-1-2.2-0.9c0.1,1,0.5,2.3,0.9,2.3h3.6
		c0.5,0,0.1,2,1.3,1.7c0.7-0.2,1.1-0.5,1.3-1.2c-2.6-1.5,1.4-4.1,0.4-5.1C-21.7,610-24.2,607.9-24.5,607.9z"/>
	<path class="st0" d="M-6.7,559.1c-53.7,0-97.3,44.3-97.3,98c0,53.6,43.7,97.8,97.3,97.8h0.1c26,0,50.4-10.7,68.8-29.1
		c18.4-18.4,28.5-43.1,28.5-69.1C90.7,603,47.1,559.1-6.7,559.1z M57.9,720.7c-4.5,4.5-9.5,8.5-14.7,11.9c2-2.1,4-4.3,4.5-7.9
		c2.5-1.5,3.5-4.5,5.8-6.3c-0.1-1.4,1.1-2.5,0-3.6c-1.4-0.2-1,1.4-2.7,0.9c-1-0.1-1.7-0.7-3.1-0.4c-1.5,1.5-4.3,1.7-6.3,2.7
		c0.2-1.8-2.8-0.5-4-0.9c-1,0.4-1,1.7-2.2,1.8c0-0.6,0.6-0.6,0.4-1.3c-1.1-0.2-1,0.8-2.2,0.5c0,0.9-1.2,2.9-2.2,1.3
		c0.3-1.7,2.1-1.8,2.2-3.6c-1.4,0.1-1.5-1.1-1.8-2.2c-3.8-2-7.5,0.8-11.6-0.4c-0.1-1.9-2.7-1.9-4-1.3c-0.2-2.9-2.7-0.7-3.6-2.7
		c-2,1.9-4.8,0.7-7.6,1.3c-0.8-0.9-2.2-1.4-3.6-1.8c0.1,1.2-0.9,1.1-1.8,1.3c-0.5,1.1,1.4,2.1,0,2.7c-1.8-0.5-1.4-3.9,0-4.5
		c-2.2,0.8-3.7,2.3-6.7,2.2c0,2.1-1.6,2.5-2.7,3.6c-1-0.8-1.9-1.7-3.1-2.2c-3.3,2-7.5,0.2-8.1-3.1c0.5-1.6,0.8-3.4,0.9-5.4
		c-0.8,0-1.1-0.3-1.3-0.9c-2.3-0.5-5.8,0.1-7.2-1.3c1.5-0.3,0.3-3.9,2.2-3.8c-0.3-2.3,1.2-2.5,1.3-5.1h-4.9c0.3,5.3-3,4-6.3,3.8
		c-0.8-0.8-1.5-0.9-2.2-1.9c-1.8-3-2.1-7.2,0.5-10.4v-3.1c0-0.7,3.2-0.7,3.9-2.2c1.1,0.7,2.6,0.7,4.2,0.9c-0.2,1.4,2.3,2,2.6,0.5
		c-0.5-0.1-1.3,0.1-1.4-0.5c2-1.5,4.2,1,5.8,0c0.7,0.6,1.4,1.3,2.2,1.8c0.1-0.7,1.1-0.4,1.8-0.4c2,2.1,0.7,7.4,4,8.1
		c1.7-3.7-2.1-7-0.9-10.3c2.4-2.7,7.7-3.8,7.6-7.6c-0.6-0.6-0.3-2.1-0.9-2.7c0.7-0.1-0.7-2.1,1.3-1.8c-0.7,0.7-0.3,1.8,0.4,2.2
		c0.8-0.9-0.3-0.8,0-2.2c0.4,0,0.9,0,1.3,0c-0.9-3.7,2.8-2.9,4.5-4c-0.6-1.4-0.1-1.5,0-3.1c2.6-0.8,4.6-4.2,7.2-3.6
		c-0.5,1.2-2.8,2-0.9,3.1c0.7-0.7,0.8-1.9,1.8-2.2c1.3-0.6,5-2.2,2.7-3.6c-0.1,0.8-0.3,1.5-0.9,1.8c-1.4,0.7-2-0.2-3.6-0.4
		c0-1.5-0.8-2.2-1.8-2.7c0.3-0.9,2.3-0.1,1.8-1.8c-4.3-0.5-4.5,3-7.2,4c0.8-1.7,1.9-3.1,3.1-4.5c0.3,0,0.6,0,0.9,0
		c0.1-0.5-0.1-1.3,0.4-1.3c1.6-0.8,3.7-1,6.3-0.9c0.6-0.9,1.7-1.3,1.8-2.7c1.1-0.3,2.3-0.4,2.2-1.8c0-0.6-0.6-0.6-0.4-1.3
		c-2.4-1.1-4.9-2.3-6.7-4c-0.3-2.7-2.2-3.8-3.6-5.4c0.2,2-0.7,2.8-2.2,3.1c-0.8-1.1-2.3-1.6-1.8-4c-2,0.4-1.8-1.5-2.7-2.2
		c-1.8,0.4-1.5,0.1-3.6,0c-0.4,1.5,1,4.9-0.9,4.9c0.7,1.7,1.8,3,1.3,5.8c-0.8,0.4-1.3,1.1-2.2,1.3c-0.2,3.1,1.3,5.4-1.8,5.8
		c-1.1-1.7-2.3-3.4-1.8-6.7c-4.3,0.1-5.2-4.6-8.1-4.5c0.4-1.8-0.2-2.8-1.3-3.1c0-2.6,2.3-4.4,4-5.8c0.5-0.5,0.9-0.3,1.3-0.9
		c0.9-1.3,0.8-0.3,2.2-0.9c0.8-1.1,0.9-2.9,2.2-3.6c0.3,1.4,1.2,0.6,2.2,0.4c0.8-0.9,0.1-1.1,0-2.2c1.1-0.9,0.9-2.1-0.9-2.2
		c-0.8,1.2-0.9,3-2.2,3.6c-0.5-0.5-0.5-1.6-0.4-2.7c-1.4,0.1-1.1-1.6-1.8-2.2c1.4-0.1,0.5-2.4-0.5-2.7c-1.5,1.5,0.2,6.6-3.1,5.4
		c-0.3-1.6,2.4-1.2,0.9-2.7c-1.7,0-0.5,2.8-2.2,2.7c-1.8-0.5-1.9-2.6-3.6-3.1c-0.9-0.1-0.9,0.6-1.3,0.9c-0.8-1-2.8-0.8-3.1-2.2
		c0-0.6,0.8-0.4,0.9-0.9c-0.4-0.4-1.1-0.9-1.3-1.3c-0.3-0.5-0.1-1.4-0.4-1.8c-0.6-0.6-1,0.2-1.3,0c-1.3-0.6,0-1.7-0.4-2.2
		c-0.3-0.3-0.8,0.2-0.9-0.4c0-0.7-3.2-0.9-4-1.8c1-3.3-1.1-5.1,0-9c-0.4-0.1-0.5-0.4-0.4-0.9c-0.8,0-1.2-0.3-1.3-0.9
		c-1.7,0.9-1.2-0.6-3.1-0.4c-0.6,1.3-1.6,2.3-3.1,2.7c-0.3-1.4,0.8-1.4,0-2.2c-2.4,0-1.9,2.6-2.2,3.6c-0.4,0-0.5,0.4-0.9,0.5
		c-1.7,0.5-0.7-1.7-2.2-1.3c-1.5,0.2-2.8,0.8-3.6,1.8c-0.3,0.4-0.4,1.4-0.6,1.8c-0.2,0.3-2,0-2,0.4c0,1,0,2.1,0,3.1
		c0,0-0.8,0.1-1.1,0.5c-0.6-0.6-1.8-0.3-2.4-0.9c0-0.5-0.1-1.1-0.3-0.4c0.4,2,3.5,1.3,4.6,2.7c1-0.6,4.7-1.9,5.4,0
		c-1.3,0-2.7,0-2.7,1.3c0.8,0.3,2.6-0.5,2.7,0.4c-0.2,2.3,0.1,4.1,0.9,5.4c-0.7,0.8-1.3,4-0.9,4.5c0.1-0.5,0.5-0.7,0.9-0.9
		c-0.1,1.6-1.2,1.1-0.4,2.7c-1.4-0.4-1.4,0.7-1.8,1.3c0.3,0.1,0.9,0,0.9,0.4c-1.5,1.2,0.4,3.2-1.8,3.6c0.1,2.1-0.9,3.5-0.9,5.4
		c0,2.8,2.6,5.5,0,7.6c-0.9-0.1-0.1-2-1.4-1.8c-0.6,3.6-2.9,5.5-4.9,7.6c0,1.4-0.4,2.3-1.3,2.7c-0.8,2,0.2,5.2-0.4,5.8
		c-0.5,0.6-0.3,2.9-0.4,4.9c0.7,1.3,1.8,2.2,2.2,4c0.5,2.1-0.3,4.6,0,6.7c0.2,1.2,1.2,2.1,0.9,3.1c0,0.7-1.1,0.4-0.9,1.4
		c0.5,1,1.5,1.5,1.8,2.7c-0.8,2.8,0.9,4.1,1.8,6.3c0.5-1.8-0.9-1.7-0.9-3.1c0.6-4.8-3.3-9.2-0.9-13c0.1,0.9,1.2,0.9,1.3,1.8
		c0,1.2,0,2.4,0,3.6c0.8,2.5,2.3,4.3,2.2,7.6c1.8,1.9,2.7,4.7,3.6,7.6c0.2,1.4-0.8,1.6-0.4,3.1c3.2,4.1,7.1,7.5,12.1,9.8
		c4-0.6,4.5,2.3,6.3,4c2.8,0.2,3.4,2.6,6.7,2.2c-0.2,2.9,3.3,2,2.7,5.4c2.7-0.6,2.3,1.9,4,2.2c0.8-0.4,3.4,2.2,4.5,1.3
		c-1.2-0.8,1.5-1.4,2.2-1.8c1.5,2.1,3.3,3.9,2.7,8.1c-0.8,0.2-0.8,1.3-2.2,0.9c-0.1,1.3-0.8,1.9-2.2,1.8c0,1.3-1.2,1.5-1.3,2.7
		c0.3,0.8,1.4,0.7,1.8,1.3c-0.1,1.4-2.4,0.6-2.2,2.2c0.8,1.7,2.6,2.5,4,3.6c1.1,2.6,3.7,3.8,4.9,6.3c2.8,1,6.4,1,8.5,2.7
		c0,0.5,0.4,0.5,0.4,0.9c0.3,0.8-0.3,1.5-0.4,1.8c-0.2,0.7-0.2,1.7-0.4,2.2c-0.1,0.2-0.2,0.3-0.4,0.5c-2.1,0.1-3.7,0.2-5.8,0.2
		l0.5,3.2v-3.2c-51.6,0-91.5-40.8-91.6-90.9c0-40.1,25.7-74.2,61.8-86.3c-0.5,1-1.1,2.1-2.1,2.6c-2.2,0.7-3.2,2.9-5.9,3.1
		c-0.2,1.4,1.3,1,0.9,2.7c-0.8,0.4-1.2,1.2-2.7,0.9c-0.5,1.1,1.9,1.6,0.4,2.2c-2.3-0.2-2.5-2.6-3.1-4.5c-2.1,0.4-4.6,0.5-5.8,1.8
		c1,0.3,1.5,1.1,2.2,1.8c1.8,0.1,3.1-1.1,4,0.4c-0.9,0.9-1,2.6-2.2,3.1c0.2,1.5,1.3,2,0.9,4c1.3-0.1,1.9-0.8,3.1-0.9
		c-0.7,1.6,1.5,0.3,1.3,1.3c-0.8,1.3-2.4,1.8-3.1,3.1c1.4-0.4,1.4,0.7,2.2,0.9c2-3.5,6.2-4.8,8-8.5c-0.5-0.1-1.3,0.1-1.3-0.4
		c1.8-0.9,2.9-2.5,4.5-3.6c2.6,0.3,3-1.5,4.5-2.2c2.6,0.3,3.3-1.2,5.4-1.3c0.8-0.9-0.3-0.9,0.4-1.8c1.8,0,2.1-1.4,3.6-1.8
		c1.7-0.5,0.7,1.7,2.2,1.3c2.2,0.4,2.2-1.4,4-1.3c1.1,1,2.7,0.1,3.6,0c0.4-0.1,0.6,0.5,0.9,0.5c0.5-0.1,1.7-1.9,1.8-0.5
		c-0.6,1-2.4,0.9-2.7,2.3c0.9,1.2,2-0.2,2.7,0c0.2,0.1,0,1.4,0.9,0.9c1.4,0.3,0.9-1.2,2.2-0.9c3,0.5,4.4-0.7,6.3-0.9
		c0.6-0.1,1.7,0.2,2.2,0c0.6-0.3-0.1-0.2,0-0.4c0.5-2.4,2.2,1.7,3.1,0c-0.1,0.1-0.7-0.4,0-0.4c1.2-0.1,0.4,1.7,1.8,1.3
		c0.4-1.8,3.8-4.1,5.4-1.8c-3.4-0.4-4.2,1.8-5.8,3.1c1.5,0,2.2-0.8,4-0.5c0.5-0.7,0.4-2,1.8-1.8c0,1.4,1,1.7,1.3,2.7
		c4.6-0.5,4.5,3.9,8.9,3.6c0.6,0.3,0.1,1.7,0.9,1.8c1.5-1.2,2.4,2.9,4.5,1.3c0.6,0.3,0.1,1.7,0.9,1.8c0-0.4,0.8-0.6,0.9,0
		c0,0.4,0,0.9,0,1.3c-1.5-0.2-2.5,0.2-3.6,0.5c0.8-1.1-0.1-3.6-1.8-3.6c-1.5,0.4-1.9,3.4-1.3,4.5c-1.1-0.1-1.4-0.9-1.8,0.4
		c0.8,0.1,1,0.8,0.9,1.8c1.1,0.2,1.2,1.5,1.8,2.2c0.3,0.4,2,0.5,1.3,1.8c0.5,0.3,1.1-0.5,1.3-0.5c-0.1,0,3.6,2.7,3.6,2.7
		c2.1,2,4.4,4,4.9,6.7c1.9,0.5,3.3,1.4,5.4,1.8c1.2-1.3-1.3-1.7-0.9-3.6c1.6,0,4.1,1.2,4.9,0.4c-0.8-0.1-1-0.8-0.9-1.8
		c-2.3-0.5-3.3-2.4-5.4-3.1c-0.7,0-1.5,0-2.2,0c-1.3-1.1-2.7-2.1-3.6-3.6c-1.8-0.1-3.2-0.7-3.1-2.7c3.6,0.4,4.4,3.7,8.5,3.6
		c0-1.6-2.6-3.5-0.5-4.5c0.5,1.5,1.6,2.3,1.8,4c2-0.4,4.1,0.6,2.7,2.2c1.9,0.7,3.6,1.5,4.5,3.1c-0.9,1.7,0.8,2.2,0.9,4
		c-0.8,0.8,0,1.1,0,2.2c-0.7,0.1-1.7-0.1-1.8,0.5c0.6,0.5,1.7,0.4,1.7,1.3c0,0.7,0,1.5,0,2.2c2.6,0,0.8,1.5,0.9,1.8
		c0.3,0.7,2.3,1.3,1.4,2.7c0.6,0.4,0.9,1.2,1.4,1.8c-0.2,1.7,0.1,2.9,0.9,3.6c-0.6,0.2-1.5,2.3-0.4,2.7c0.8-1.6,1.6-0.9,3.6-0.9
		c0.7,1.6,2.4,2.1,2.7,4c-0.8,2.1-3,3-2.7,6.3c3,0.9,2.9,4.8,5.8,5.8c0.1-1.1,1.3-1.9,2.2-0.9c-0.2-1.8,0.4-2.9,0.9-4
		c-0.9-2.4-2-4.5-3.1-6.7c0.3-2.6-1.3-3.1-1.8-4.9c0.8-2.2,0.2-3.9-0.5-5.8c2.4-0.1,4.3-0.8,6.3-2.2c-1.7,0.5-0.9-1.5-1.8-1.8
		c-1.1,2.6-5.3,2.2-5.8-0.9c1-0.1,1.8-0.9,2.7,0c0.3-1,1.8-1.3,2.7-1.8c1.1,0.4,0.5,1.8,3.6,1.3c0-0.8,0-1.4,0-1.4
		c-3.1,0-2.5,0-3.2,0c-0.1-2.6-1-2.4-1.3-4.4c1.6,0,2.2,0.9,3.6,1.1c0.1-0.9-0.2-1.4-0.5-1.9c2.3,3.1,4.3,6.3,6.2,9.6
		c-0.1,0.5-0.3,1-0.4,1.5c0.7,2,2.4,3,2.7,5.3c-0.3,2.6-1.7,1.4-1.8,2.7c-1,0.4,0.1,2.8-1.8,2.2c-0.8-1.3-1.2-3-3.1-3.1
		c0.7,4-1.8,8.3-0.9,13.9c-1,0.3-0.3,2.3-2.2,1.8c-0.1,1.4,1.2,1.5,0.9,3.1c-0.5,4.3,1.2,6.3,2.2,8.9c0.4,1.7-0.8,2.9-0.9,4.9
		c-0.2,4,0.9,8.7,0.9,11.6c1.4,1.2,2.4,2.9,2.7,5.4c0.2,1.2-0.3,2.8,0,4c0.1,0.4,1.7,1.1,0.9,2.2c1.5-0.5,4.1,0,4.5,1.8
		c1.3-0.4,2.8-0.5,4-0.9c0.7-2.5,1.7-4.7,2.6-7C80.4,689.6,71.6,707,57.9,720.7z"/>
</g>
<rect x="-333" y="971.3" class="st1" width="910" height="180"/>
<text transform="matrix(1 0 0 1 -333.0022 1041.9712)" class="st0 st2 st3">Volunteer Finder</text>
</svg>
